<svg width="124" height="22" viewBox="0 0 124 22" fill="none" xmlns="http://www.w3.org/2000/svg">
<g clip-path="url(#clip0)">
<path d="M14.3 1.65C16.1205 1.65 17.6 3.1295 17.6 4.95V21.45L11 19.25H3.3C2.695 19.25 2.1285 19.0905 1.6445 18.8045L6.4735 15.048L12.386 10.45L6.4735 5.852L1.6445 2.0955C2.1285 1.8095 2.695 1.65 3.3 1.65H14.3ZM8.8 10.45L5.1975 13.2495L0.2145 17.1215C0.077 16.7585 0 16.3625 0 15.95V4.95C0 4.5375 0.077 4.1415 0.2145 3.7785L5.1975 7.6505L8.8 10.45Z" fill="#6140FF"/>
<path d="M29.7505 10.121C31.6733 10.6671 32.765 11.8909 32.765 13.6828C32.765 15.8025 30.9737 17.1791 28.5262 17.1791C26.8003 17.1791 25.1613 16.5235 24.1999 15.1469L26.2101 13.4424C26.7128 14.2075 27.6522 14.6442 28.6796 14.6442C29.4436 14.6442 30.0343 14.3824 30.0343 13.8577C30.0343 13.377 29.597 13.1801 28.4173 12.8523L27.6522 12.6339C25.664 12.1098 24.6586 10.798 24.7026 9.09414C24.724 7.10534 26.407 5.77269 28.7011 5.77269C30.2966 5.77269 31.5418 6.36284 32.4378 7.32424L30.7553 9.13759C30.1437 8.59144 29.3787 8.24164 28.5702 8.24164C27.8926 8.24164 27.4119 8.45999 27.4119 8.91924C27.4119 9.31249 27.6522 9.53084 28.7231 9.83664L29.7505 10.121ZM39.0818 5.77247C41.9445 5.77247 44.4575 7.60837 44.4575 11.1482C44.4575 11.4105 44.4575 11.7158 44.414 12.175H36.241C36.4159 13.6391 37.7051 14.4476 39.1478 14.4476C40.5024 14.4476 41.4858 13.814 41.9665 13.071L44.1951 14.7314C43.1903 16.1955 41.4204 17.1789 39.1258 17.1789C35.8698 17.1789 33.3348 14.9283 33.3348 11.476C33.3348 8.24142 35.7603 5.77247 39.0818 5.77247ZM36.3505 10.1428H41.4638C41.2015 8.85357 40.1092 8.24142 38.9949 8.24142C37.88 8.24142 36.6348 8.81012 36.3505 10.1428ZM51.823 5.77258C54.4674 5.77258 56.0404 7.69593 56.0404 10.5361V16.9387H53.0467V11.0388C53.0467 9.46528 52.3697 8.50388 51.1239 8.50388C49.7473 8.50388 48.6979 9.50928 48.6979 11.607V16.9387H45.7048V6.01293H48.6979V7.25868C49.2666 6.38418 50.4029 5.77258 51.823 5.77258ZM65.417 7.23662V0.549725H68.4107V16.9386H65.417V15.7149C64.9363 16.4145 63.778 17.179 62.2705 17.179C59.3637 17.179 57.1351 14.5786 57.1351 11.476C57.1351 8.37292 59.3637 5.77252 62.2705 5.77252C63.778 5.77252 64.9363 6.53757 65.417 7.23662ZM62.9041 14.4477C64.5425 14.4477 65.6574 13.1799 65.6574 11.476C65.6574 9.77157 64.5425 8.50382 62.9041 8.50382C61.2656 8.50382 60.1508 9.77157 60.1508 11.476C60.1508 13.1799 61.2656 14.4477 62.9041 14.4477ZM75.0556 10.121C76.9784 10.6671 78.0707 11.8909 78.0707 13.6828C78.0707 15.8025 76.2794 17.1791 73.8313 17.1791C72.1054 17.1791 70.4664 16.5235 69.505 15.1469L71.5153 13.4424C72.018 14.2075 72.9579 14.6442 73.9848 14.6442C74.7493 14.6442 75.3394 14.3824 75.3394 13.8577C75.3394 13.377 74.9027 13.1801 73.7224 12.8523L72.9579 12.6339C70.9691 12.1098 69.9643 10.798 70.0077 9.09414C70.0297 7.10534 71.7122 5.77269 74.0068 5.77269C75.6018 5.77269 76.8475 6.36284 77.7435 7.32424L76.0605 9.13759C75.4489 8.59144 74.6838 8.24164 73.8753 8.24164C73.1983 8.24164 72.7176 8.45999 72.7176 8.91924C72.7176 9.31249 72.9579 9.53084 74.0282 9.83664L75.0556 10.121ZM85.5017 5.77252C88.4079 5.77252 90.637 8.37292 90.637 11.476C90.637 14.5786 88.4079 17.179 85.5017 17.179C83.9941 17.179 82.8358 16.4145 82.3331 15.7149V21.5058H79.3395V6.01287H82.3331V7.23662C82.8358 6.53757 83.9941 5.77252 85.5017 5.77252ZM84.8461 14.4477C86.4851 14.4477 87.5994 13.1799 87.5994 11.476C87.5994 9.77157 86.4851 8.50382 84.8461 8.50382C83.2076 8.50382 82.0928 9.77157 82.0928 11.476C82.0928 13.1799 83.2076 14.4477 84.8461 14.4477ZM99.4445 7.23662V6.01287H102.438V16.9386H99.4445V15.7149C98.9639 16.4145 97.8055 17.179 96.298 17.179C93.3918 17.179 91.1627 14.5786 91.1627 11.476C91.1627 8.37292 93.3918 5.77252 96.298 5.77252C97.8055 5.77252 98.9639 6.53757 99.4445 7.23662ZM96.9316 14.4477C98.5706 14.4477 99.6849 13.1799 99.6849 11.476C99.6849 9.77157 98.5706 8.50382 96.9316 8.50382C95.2932 8.50382 94.1783 9.77157 94.1783 11.476C94.1783 13.1799 95.2932 14.4477 96.9316 14.4477ZM107.378 7.76094C107.751 6.69009 108.864 5.88159 110.089 5.88159C110.394 5.88159 110.722 5.90359 111.094 6.01304V9.05014C110.635 8.89724 110.219 8.80979 109.738 8.80979C108.318 8.80979 107.378 9.92464 107.378 11.716V16.9388H104.385V6.01304H107.378V7.76094ZM118.161 11.2599L123.2 16.9387H119.507L115.049 11.9128V16.9387H112.055V0.54978H115.049V8.68208C115.295 8.76678 115.556 8.81848 115.835 8.81848C117.081 8.81848 117.759 7.85708 117.759 6.28408V5.33368H120.752V6.78623C120.752 8.98183 119.809 10.6252 118.161 11.2599Z" fill="#080820"/>
</g>
<defs>
<clipPath id="clip0">
<rect width="123.357" height="22" fill="white"/>
</clipPath>
</defs>
</svg>
